<svg width="256" height="262" viewBox="0 0 256 262" fill="none" xmlns="http://www.w3.org/2000/svg">
  <path d="M255.878 133.451C255.878 124.213 255.13 117.47 253.51 110.479H130.55V159.091H202.736C201.281 171.176 193.422 189.382 175.952 201.611L175.707 203.239L214.604 232.881L217.299 233.145C242.05 210.668 255.878 177.6 255.878 133.451Z" fill="#4285F4"/>
  <path d="M130.55 261C165.914 261 195.632 249.539 217.299 233.145L175.952 201.611C164.91 209.201 150.005 214.453 130.55 214.453C95.9135 214.453 66.4863 191.976 56.0269 160.926L54.4617 161.056L14.0168 191.847L13.4785 193.321C34.9994 235.094 79.3842 261 130.55 261Z" fill="#34A853"/>
  <path d="M56.0269 160.926C53.2614 152.944 51.6616 144.342 51.6616 135.493C51.6616 126.644 53.2614 118.043 55.8814 110.061L55.8068 108.324L14.8455 77.0391L13.4785 77.6652C4.60213 95.1268 0 114.695 0 135.493C0 156.291 4.60213 175.859 13.4785 193.321L56.0269 160.926Z" fill="#FBBC05"/>
  <path d="M130.55 46.5338C155.096 46.5338 171.659 56.8869 181.099 65.5652L218.172 30.1499C195.559 9.35111 165.914 0 130.55 0C79.3842 0 34.9994 25.9059 13.4785 77.6652L55.8815 110.061C66.4863 79.011 95.9135 46.5338 130.55 46.5338Z" fill="#EB4335"/>
</svg>
