<svg version="1.2" xmlns="http://www.w3.org/2000/svg" viewBox="0 0 1312 1570" width="1312" height="1570">
	<title>Herbalife New 2023-svg</title>
	<style>
		.s0 { fill: #006429 } 
	</style>
	<path id="Layer" class="s0" d="m1131.2 618q-78.8 75.7-163.8 144.5c-48.2 39-93.8 80.7-137.1 125-1.1 1.1-2.9 1-3.7-0.3q-45.7-69.9-67.3-149.4c-10.7-39.6-15.8-77.7-15.3-114.4q1.7-101.5 54.9-193c14.5-24.9 29.7-48.1 45.8-69.6 13.6-18.3 31.7-39.2 54.4-62.7q91.4-94.6 194.5-176.8c46.8-37.4 90.9-77.4 132.3-120.2 1.5-1.5 4.1-1.2 5.3 0.7 15.8 26.4 29.7 53.5 41.7 81.4 12.9 29.9 22.4 58.8 28.4 86.6 26 120.1 1.6 231.8-73.2 335.1-31.8 43.9-64.1 81.6-96.9 113.1zm-832.2 264.1c-2.3-1.7-4.3-3.5-6.2-5.6q-87.6-99.8-145.3-219.5-40.8-84.7-80.3-169.9c-18.9-40.8-41-81.3-66.2-121.2-1.3-2-0.3-4.8 2-5.5q98.9-31.1 204.3-23.8 72.8 5.2 143.8 43.4c56.6 30.4 104.8 70.8 144.8 121.2q35.9 45.2 65 95.3c38.2 65.9 72.8 133.6 103.9 203.1q38.9 87 90.5 175.2c1.5 2.5 0.2 5.7-2.6 6.4-31.4 8.6-61.9 15.1-91.3 19.4-139.3 20.8-258-17.1-356-113.5-1.4-1.3-3.5-2.9-6.4-5zm540.7 674.8c-3.3 3.4-6.7 7.1-10.1 11.1-2 2.3-5.6 1.9-7.1-0.7-20-34.9-37.3-71.1-51.9-108.6-20.6-52.8-30.2-106.9-28.6-162.2 1.1-37.7 8.3-75.4 21.7-113.1q25.3-70.9 71.6-131.8 24-31.7 50.4-61.4c15-17 33.6-35.8 55.8-56.4 61.6-57 124.8-112.2 189.5-165.6 33-27.2 63.8-55.8 92.7-85.8 1.4-1.5 3.9-1.3 5 0.5 26.6 42.7 47.1 88 61.7 136.1q52.5 173.8-40.7 327.6c-41 67.8-91.1 128.1-150.2 180.9q-84.2 75.3-171.1 147.5c-30.9 25.8-60.5 53.1-88.7 81.9z"/>
</svg>